<svg xmlns="http://www.w3.org/2000/svg" viewBox="0 0 1274.88 100.84"><defs><style>.cls-1{fill:#1b1b1b;}</style></defs><title>Parsec-Logo</title><g id="Capa_2" data-name="Capa 2"><g id="Logos"><path class="cls-1" d="M803.58,8.58q9.79,8.6,9.81,24.17,0,15.87-9.81,24.67T776,66.21h-30.4v34.63h-2.8V0H776Q793.78,0,803.58,8.58Zm-2,46.74q9-8,9-22.57,0-14.28-9-22.08T776,2.88h-30.4V63.33H776Q792.52,63.33,801.55,55.32Z"/><path class="cls-1" d="M904.7,100.84,891,70.17H831.59L818,100.84h-3.36L859.46.21h3.08l45.38,100.63ZM832.85,67.3h56.73L861,3.52Z"/><path class="cls-1" d="M991.4,54.7q-6.58,8.19-18.77,10.88L998,100.84h-3.5L969.55,66.15c-3.74.38-6.72.57-9,.57h-30.4v34.12h-2.8V1.46h33.2q17.77,0,27.59,8.46T998,33.73Q998,46.53,991.4,54.7Zm-30.81,9.17q16.51,0,25.56-7.89t9-22.25q0-14.07-9-21.75T960.59,4.31h-30.4V63.87Z"/><path class="cls-1" d="M1066.12,5.22a51.35,51.35,0,0,0-13.24-1.77q-12.89,0-20.66,5.32t-7.77,14.13q0,7.67,3.78,12.35a25,25,0,0,0,9.32,7.17,140.28,140.28,0,0,0,15,5.46,137.16,137.16,0,0,1,16.11,5.9,26.56,26.56,0,0,1,10.15,8.16q4.14,5.4,4.14,14.2a21.51,21.51,0,0,1-4.07,13,25.86,25.86,0,0,1-11.55,8.66,48.42,48.42,0,0,1-35.86-.78,45.3,45.3,0,0,1-15.19-10.22l2-2a39.35,39.35,0,0,0,14.15,9.66A44.78,44.78,0,0,0,1049.8,98q13.88,0,22.13-6a18.68,18.68,0,0,0,8.27-15.9q0-7.81-3.86-12.57a26.49,26.49,0,0,0-9.45-7.38,122.69,122.69,0,0,0-15.27-5.61,132.77,132.77,0,0,1-15.89-5.89,26.84,26.84,0,0,1-10-8q-4.07-5.25-4.06-13.91,0-10.08,8.54-16.12t22.69-6a51.19,51.19,0,0,1,13.94,2,43.93,43.93,0,0,1,12.11,5.25l-1.4,2.27A39.24,39.24,0,0,0,1066.12,5.22Z"/><path class="cls-1" d="M1111.57.21h61.2V3.09h-58.4V47.57h52v2.88h-52V98h60.36v2.88h-63.16Z"/><path class="cls-1" d="M1258.42,5.84a48,48,0,0,0-17.3-3.13,46.27,46.27,0,0,0-23.81,6.41A48,48,0,0,0,1200,26.51a46.16,46.16,0,0,0-6.45,23.8,46.13,46.13,0,0,0,6.45,23.8,47.92,47.92,0,0,0,17.36,17.39,47.41,47.41,0,0,0,41,3.21,47.26,47.26,0,0,0,14.64-9l2,1.85a50.1,50.1,0,0,1-15.55,9.69,49.25,49.25,0,0,1-18.21,3.42A48.51,48.51,0,0,1,1216,93.78a51.2,51.2,0,0,1-18.34-18.38,48.61,48.61,0,0,1-6.8-25.09,49,49,0,0,1,6.8-25.15A50.38,50.38,0,0,1,1216,6.77a50,50,0,0,1,43.28-3.35A51.78,51.78,0,0,1,1274.74,13l-1.82,1.85A44.51,44.51,0,0,0,1258.42,5.84Z"/><path class="cls-1" d="M0,0H86.92V26.32H59.37v74.52h-32V26.32H0Z"/><path class="cls-1" d="M150,100.84,138.44,74.66h-12v26.18h-32V0h46.7q19.7,0,30.44,9.42t10.75,26.69a43.29,43.29,0,0,1-3.93,19A30.92,30.92,0,0,1,167.1,68l19,32.8Zm-23.55-51.5H141.2c3.49,0,6.17-1.08,8.06-3.24s2.82-5.15,2.82-9-.94-6.64-2.82-8.7-4.57-3.09-8.06-3.09H126.46Z"/><path class="cls-1" d="M194.37,0h32V100.84h-32Z"/><path class="cls-1" d="M415.05,0H444V100.84H417.26l-38-51.5v51.5H350.17V0h26.72l38.16,51.78Z"/><path class="cls-1" d="M521.67,47.55h27.42V87.91A72.64,72.64,0,0,1,529,97a88.34,88.34,0,0,1-23.76,3.84,55,55,0,0,1-26.93-6.55,47.92,47.92,0,0,1-18.67-18,50.36,50.36,0,0,1-6.75-26A48.31,48.31,0,0,1,479.38,6.47a59.6,59.6,0,0,1,28-6.47A66.07,66.07,0,0,1,530,4.13a58.33,58.33,0,0,1,19.08,11L531,37.06a36,36,0,0,0-11.37-7.65,31.47,31.47,0,0,0-12.46-2.82,20.33,20.33,0,0,0-11,3.1,21.14,21.14,0,0,0-7.72,8.47,26.12,26.12,0,0,0-2.75,12.12,26.41,26.41,0,0,0,2.82,12.33,21.52,21.52,0,0,0,7.79,8.54,20.55,20.55,0,0,0,11.15,3.1c3.49,0,9.23-1.35,14.19-3.56Z"/><path class="cls-1" d="M559.42,0h32V73.07H631.6v27.77H559.42Z"/><path class="cls-1" d="M639.87,0h82.92V25.32h-51V37.69H717V63H671.82V75.52h51v25.32H639.87Z"/><path class="cls-1" d="M288.24,0,231.83,100.83H344.66Zm0,45.32,19.37,34.62H268.88Z"/></g></g></svg>